<?xml version="1.0" encoding="utf-8"?>
<!DOCTYPE svg PUBLIC "-//W3C//DTD SVG 1.0//EN" "http://www.w3.org/TR/2001/REC-SVG-20010904/DTD/svg10.dtd">
<svg version="1.0" xmlns="http://www.w3.org/2000/svg" width="417px" height="598px" viewBox="0 0 417 598" preserveAspectRatio="xMidYMid meet">
 <g fill="#e63a2b">
  <path d="M186.5 549.5 c-28.4 -3.4 -57.5 -15.2 -79.1 -32.1 -21.8 -17 -37.3 -36.1 -49.7 -61 -12.7 -25.4 -18.2 -50.2 -18.1 -80.4 0.1 -34 7.3 -65.5 23.2 -102 13.3 -30.6 33.5 -66.2 63.4 -111.5 9 -13.8 18.6 -28.4 21.2 -32.5 2.7 -4.1 7.9 -12.2 11.7 -18 3.7 -5.8 10 -15.7 13.9 -22 3.9 -6.3 9.3 -14.9 12 -19 7.3 -11.4 11.8 -18.8 16.5 -26.8 l4.2 -7.2 11.5 18.2 c6.4 10.1 14.2 22.5 17.4 27.5 3.3 5.1 6.4 10.1 6.9 11 1.9 3.3 27.5 42.5 61.3 93.8 6.9 10.5 13.5 20.6 14.7 22.5 1.2 1.9 5.2 8 8.8 13.5 21.4 32.9 29.7 53 29.7 71.8 -0.1 9.7 -3.3 23.6 -7.4 31.9 -3 6 -3.2 7 -1.9 8.3 0.8 0.8 1.9 1.5 2.6 1.5 2.2 0 10.3 4.4 15.9 8.7 21.5 16.4 29.1 48 18 74.8 -4.1 9.9 -14.9 20.9 -25.8 26 -11.3 5.3 -18.5 6.7 -38.5 7.2 -23.9 0.7 -22.9 1.3 -22.9 -15.5 0 -16.7 -1 -15.9 19.7 -16.5 20.8 -0.6 25.5 -1.8 32.3 -8.6 5.3 -5.3 6.8 -9 7.7 -18.8 1.4 -15.2 -5.3 -24.4 -21.2 -29.1 -3.7 -1.1 -12.8 -1.6 -36 -1.9 -27 -0.4 -31.2 -0.7 -32.2 -2.1 -0.9 -1.1 -1.3 -5.7 -1.3 -14.4 0 -11.6 0.2 -12.8 1.9 -13.8 1.2 -0.6 9.5 -1 19.8 -1 20.7 0 23.3 -0.8 30.1 -8.5 5.4 -6.1 8.3 -13.9 8.9 -24.1 1 -14.4 -3.3 -23.4 -13.2 -28 -5 -2.4 -5.2 -2.4 -43.7 -2.4 l-38.7 0 -0.3 30.6 -0.3 30.6 -2.4 1.9 c-1.9 1.5 -3.9 1.9 -10.5 1.9 -7.3 0 -8.5 -0.3 -10.4 -2.3 -2.2 -2.3 -2.2 -2.9 -2.2 -32.5 l0 -30.2 -9.8 0 c-13.8 0 -14.2 -0.4 -14.2 -12.9 0 -6.8 0.4 -10.3 1.4 -11.7 1.4 -1.8 3.5 -1.9 63.8 -2.4 56.9 -0.5 62.3 -0.6 62.2 -2.1 -0.1 -0.9 -16.1 -25.7 -35.6 -55 -36.2 -54.4 -42.9 -64.6 -43.8 -66.4 -0.3 -0.5 -2.5 -4.1 -5 -8 -2.5 -3.8 -7 -10.9 -10 -15.7 -3 -4.9 -6 -8.8 -6.7 -8.8 -1.1 0 -10.3 12.8 -10.3 14.3 0 0.9 -4.4 7.3 -6.4 9.2 -0.9 0.9 -1.6 2.2 -1.6 2.9 0 0.7 -1.3 3.1 -2.8 5.2 -1.5 2.1 -5.7 8.5 -9.2 14.2 -3.5 5.6 -6.7 10.2 -7.2 10.2 -0.4 0 -0.7 0.4 -0.5 0.8 0.1 0.5 -4.9 8.7 -11.2 18.3 -10.9 16.6 -23.8 36.3 -28.7 43.9 -5.5 8.6 -20.3 34.6 -26.1 46 -3.6 6.9 -7.1 13.2 -7.9 14.1 -0.8 0.9 -1.2 1.8 -0.9 2.1 0.4 0.4 -5.9 15.7 -9.4 22.5 -0.7 1.6 -4.8 14.2 -8.3 26.1 -0.7 2.3 -1.6 4.2 -2 4.2 -0.5 0 -0.8 1.5 -0.8 3.3 0 1.7 -0.5 4.8 -1 6.7 -1.5 5.1 -4 29.9 -4 39.7 0 42.4 15.5 81.9 43 109.3 24.5 24.5 49.6 36.4 86.4 40.7 11.6 1.3 16 1.4 26 0.4 35.7 -3.3 61.1 -14.7 86.6 -38.9 4.6 -4.4 8.4 -7.2 9.7 -7.2 2.2 0 16.4 6.9 21.2 10.2 l2.4 1.7 -5.1 6.4 c-6.9 8.7 -21.1 21.9 -30.9 29 -14.6 10.4 -34 19.4 -53.8 24.8 -16.7 4.6 -44.8 6 -67 3.4z"/>
 </g>
 <g fill="#d82f25">
  <path d="M192.3 550.3 c-6.7 -0.5 -7 -2.3 -0.4 -2.3 6.8 0 14.1 1.1 14.1 2.1 0 0.9 -3.1 0.9 -13.7 0.2z"/>
  <path d="M217 550 c0 -0.5 2 -1 4.5 -1 2.5 0 4.5 0.5 4.5 1 0 0.6 -2 1 -4.5 1 -2.5 0 -4.5 -0.4 -4.5 -1z"/>
  <path d="M240 548 c0 -0.5 0.9 -1 2 -1 1.1 0 2 0.5 2 1 0 0.6 -0.9 1 -2 1 -1.1 0 -2 -0.4 -2 -1z"/>
  <path d="M245 547 c0 -0.5 0.7 -1 1.5 -1 0.8 0 1.5 0.5 1.5 1 0 0.6 -0.7 1 -1.5 1 -0.8 0 -1.5 -0.4 -1.5 -1z"/>
  <path d="M166.1 514.9 c-2.5 -0.5 -4.9 -1.4 -5.5 -2 -0.8 -0.9 -0.5 -1 1.4 -0.5 1.4 0.4 4.8 1.3 7.5 2.1 5.6 1.4 3.4 1.7 -3.4 0.4z"/>
  <path d="M256.6 514.1 c1.7 -0.4 3.7 -1.2 4.5 -1.6 1.2 -0.8 1.2 -0.6 0 0.8 -0.8 1 -2.6 1.7 -4.5 1.6 l-3.1 -0.1 3.1 -0.7z"/>
  <path d="M124.4 493.5 c-1.4 -1.1 -1.5 -1.4 -0.4 -1.4 0.8 0 2.4 0.6 3.4 1.4 1.5 1.1 1.6 1.5 0.5 1.5 -0.8 0 -2.4 -0.7 -3.5 -1.5z"/>
  <path d="M91.2 460.3 c0.5 -2.5 2.5 -2.7 3.8 -0.4 1 1.9 0.8 2.1 -1.5 2.1 -1.9 0 -2.6 -0.5 -2.3 -1.7z"/>
  <path d="M298.8 452.9 c-3.2 -1.8 -1.9 -2.6 3.5 -1.8 2.8 0.4 6 0.8 7 0.8 0.9 0.1 1.7 0.6 1.7 1.1 0 1.3 -10 1.2 -12.2 -0.1z"/>
  <path d="M329 453 c0 -0.5 0.6 -1 1.4 -1 0.8 0 1.8 0.5 2.1 1 0.3 0.6 -0.3 1 -1.4 1 -1.2 0 -2.1 -0.4 -2.1 -1z"/>
  <path d="M81 440.4 c0 -0.9 0.5 -1.4 1.2 -1.2 1.8 0.6 2.1 2.8 0.4 2.8 -0.9 0 -1.6 -0.7 -1.6 -1.6z"/>
  <path d="M75 429 c0 -0.5 0.6 -1 1.4 -1 0.8 0 1.8 0.5 2.1 1 0.3 0.6 -0.3 1 -1.4 1 -1.2 0 -2.1 -0.4 -2.1 -1z"/>
  <path d="M44.1 419.2 c-0.7 -3.1 -1.5 -6.8 -1.7 -8.2 -0.4 -2.3 -0.3 -2.2 1.1 0.5 0.8 1.7 1.4 3.9 1.5 4.9 0 1.1 0.6 2.7 1.4 3.5 1.2 1.3 1.2 1.9 0.2 3.3 -1 1.4 -1.4 0.9 -2.5 -4z"/>
  <path d="M381.5 417 c0.3 -0.5 1.3 -1 2.1 -1 0.8 0 1.4 0.5 1.4 1 0 0.6 -0.9 1 -2.1 1 -1.1 0 -1.7 -0.4 -1.4 -1z"/>
  <path d="M69.6 410.9 c-1.8 -8.9 1.1 -10.9 3 -2.1 1.1 4.7 1 5.2 -0.6 5.2 -1.2 0 -2 -1 -2.4 -3.1z"/>
  <path d="M386.3 404.3 c-0.8 -0.3 -1.3 -2.2 -1.3 -4.9 0 -3.5 0.4 -4.4 1.8 -4.5 1 0 1.2 -0.3 0.5 -0.6 -1.5 -0.6 -1.7 -5.3 -0.3 -5.3 1.7 0 2 2.1 1.2 9.1 -0.5 4.6 -1.1 6.5 -1.9 6.2z"/>
  <path d="M385 383.9 c0 -2.4 2.3 -2.1 2.8 0.4 0.2 1 -0.3 1.7 -1.2 1.7 -1 0 -1.6 -0.9 -1.6 -2.1z"/>
  <path d="M351 375 c-0.6 -1.2 -0.9 -2.4 -0.7 -2.7 0.3 -0.2 1.1 0.5 1.7 1.7 0.6 1.2 0.9 2.4 0.7 2.7 -0.3 0.2 -1.1 -0.5 -1.7 -1.7z"/>
  <path d="M341 367.5 c-1.4 -0.8 -3.3 -1.4 -4.2 -1.5 -1.8 0 -3.4 -1.8 -2.4 -2.8 0.9 -0.8 9.6 3.5 9.6 4.8 0 1.2 0 1.2 -3 -0.5z"/>
  <path d="M376.1 362.3 c-0.1 -3.7 1.3 -4.3 2.9 -1.3 0.8 1.6 0.8 2 -0.4 2 -0.8 0 -1.7 0.6 -1.9 1.3 -0.3 0.6 -0.6 -0.3 -0.6 -2z"/>
  <path d="M373 356.4 c-1.4 -0.7 -2.5 -1.7 -2.5 -2.1 0 -0.4 -0.4 -1.4 -0.9 -2.1 -1.2 -1.9 0.1 -2.7 1.9 -1.2 2.2 1.8 5.8 7 4.8 6.9 -0.4 -0.1 -1.9 -0.7 -3.3 -1.5z"/>
  <path d="M265 335.1 c0 -2.3 4.4 -3.1 16.7 -3 10.9 0.2 12 0.3 7.3 1 -3 0.5 -9.2 1.1 -13.7 1.3 -4.5 0.2 -8.7 0.7 -9.3 1.1 -0.5 0.3 -1 0.2 -1 -0.4z"/>
  <path d="M209.6 332.5 c0.5 -1.2 2.5 -1.5 9 -1.5 4.6 0 8.4 0.4 8.4 0.9 0 1.5 -2.9 2.1 -10.6 2.1 -6.1 0 -7.2 -0.3 -6.8 -1.5z"/>
  <path d="M44.4 330.7 c0.3 -1 0.6 -2.7 0.6 -3.8 0 -1 0.5 -1.9 1 -1.9 1.5 0 1.2 3.4 -0.6 5.6 -1.4 1.7 -1.5 1.7 -1 0.1z"/>
  <path d="M70.2 331.1 c-0.9 -0.5 -1.1 -2.6 -0.6 -7.9 0.6 -6.8 0.8 -7.2 2.8 -6.6 1.2 0.4 2.2 0.8 2.4 0.9 0.2 0.1 -0.5 3.4 -1.5 7.3 -1.3 5.3 -2.1 6.9 -3.1 6.3z"/>
  <path d="M345.3 330.3 c-2 -0.7 -1.5 -2.3 0.7 -2.3 1.1 0 2 0.4 2 0.9 0 1.3 -1.2 1.9 -2.7 1.4z"/>
  <path d="M204.4 301 c0 -14 0.2 -19.8 0.3 -12.7 0.2 7 0.2 18.4 0 25.5 -0.1 7 -0.3 1.2 -0.3 -12.8z"/>
  <path d="M318.2 322.1 c0.7 -0.9 1.4 -1.8 1.5 -2 0.2 -0.2 0.3 0.5 0.3 1.6 0 1.1 -0.7 2 -1.5 2 -1.2 0 -1.2 -0.3 -0.3 -1.6z"/>
  <path d="M227 317 c0 -2.9 0.4 -4 1.5 -4 1.1 0 1.5 1.1 1.5 4 0 2.9 -0.4 4 -1.5 4 -1.1 0 -1.5 -1.1 -1.5 -4z"/>
  <path d="M47.1 318.3 c0 -0.4 0.4 -1.7 0.9 -2.8 0.8 -1.9 0.9 -1.9 0.9 0.2 0.1 1.2 -0.3 2.5 -0.9 2.8 -0.5 0.3 -1 0.3 -0.9 -0.2z"/>
  <path d="M75.3 313.3 c-1.8 -0.7 -1.6 -2.3 0.2 -2.3 0.8 0 1.5 0.7 1.5 1.5 0 0.8 -0.1 1.5 -0.2 1.4 -0.2 0 -0.9 -0.3 -1.5 -0.6z"/>
  <path d="M53.7 299.3 c-0.6 -1 3.1 -12.5 5.1 -15.8 1.1 -1.9 1.1 -1.8 1.2 0.7 0 1.5 -0.7 3.1 -1.6 3.6 -1 0.6 -1.6 2.6 -1.8 6.2 -0.3 4.9 -1.6 7.4 -2.9 5.3z"/>
  <path d="M80.3 297.2 c-1.2 -0.8 -0.7 -13.2 0.6 -13.2 0.3 0 1.4 0.7 2.5 1.5 1.8 1.3 1.8 1.6 0.1 6.9 -1 3.1 -1.8 5.6 -1.9 5.6 0 0 -0.6 -0.4 -1.3 -0.8z"/>
  <path d="M227 279 c0 -0.5 0.7 -1 1.5 -1 0.8 0 1.5 0.5 1.5 1 0 0.6 -0.7 1 -1.5 1 -0.8 0 -1.5 -0.4 -1.5 -1z"/>
  <path d="M319 275.5 c-3.1 -3.3 -1.5 -5.5 1.9 -2.6 1.6 1.4 2 2.4 1.4 3.6 -0.8 1.3 -1.2 1.2 -3.3 -1z"/>
  <path d="M91.2 270.1 c-0.8 -0.5 -1.2 -2.2 -1 -4.2 0.3 -2.9 0.7 -3.4 3.1 -3.7 2.6 -0.3 2.8 -0.1 2.2 2 -1.5 4.7 -3 6.7 -4.3 5.9z"/>
  <path d="M65.1 269.3 c0 -0.5 0.4 -1.7 0.9 -2.8 0.8 -1.8 0.9 -1.7 0.9 0.8 0.1 1.5 -0.3 2.7 -0.9 2.7 -0.5 0 -1 -0.3 -0.9 -0.7z"/>
  <path d="M255 268 c0 -0.5 2.5 -1 5.5 -1 3 0 5.5 0.5 5.5 1 0 0.6 -2.5 1 -5.5 1 -3 0 -5.5 -0.4 -5.5 -1z"/>
  <path d="M68.1 261.6 c0.7 -1.5 1.5 -2.3 1.7 -1.6 0.3 0.7 -0.3 1.9 -1.3 2.8 -1.5 1.6 -1.6 1.5 -0.4 -1.2z"/>
  <path d="M343.8 262.8 c-0.6 -1.8 0.3 -5.8 1.3 -5.8 0.8 0 3.4 4 2.7 4.4 -0.2 0.1 -1 0.7 -2 1.4 -1.3 1 -1.7 1 -2 0z"/>
  <path d="M180.3 254 c0 -4.7 0.2 -6.6 0.4 -4.2 0.2 2.3 0.2 6.1 0 8.5 -0.2 2.3 -0.4 0.4 -0.4 -4.3z"/>
  <path d="M97.2 257.1 c-1.6 -0.9 -0.5 -4.1 1.4 -4.1 1.5 0 1.8 1.8 0.6 3.7 -0.4 0.7 -1.3 0.9 -2 0.4z"/>
  <path d="M102.2 247.1 c-2.1 -1.3 -1 -4.6 1.6 -4.9 2.5 -0.4 2.9 1.5 1 4.1 -0.9 1.1 -1.8 1.4 -2.6 0.8z"/>
  <path d="M334.6 240.8 c-1.8 -2.6 -2 -3.8 -0.6 -3.8 0.5 0 1.6 1.4 2.5 3 1.8 3.5 0.4 4.1 -1.9 0.8z"/>
  <path d="M329.5 231.9 c-0.4 -0.6 -0.5 -1.3 -0.2 -1.6 0.7 -0.7 2.7 0.6 2.7 1.8 0 1.2 -1.7 1.2 -2.5 -0.2z"/>
  <path d="M112.7 228.2 c-3 -0.6 -1.8 -4.6 1.6 -5 3 -0.4 3.2 0.3 1.4 3.3 -0.7 1.2 -2 1.9 -3 1.7z"/>
  <path d="M297 221.2 c0 -2.2 0.5 -3.2 1.5 -3.2 1.9 0 1.9 1.9 0 4.4 -1.4 1.9 -1.5 1.8 -1.5 -1.2z"/>
  <path d="M115.6 221.5 c-0.8 -0.9 -1.9 -1.6 -2.3 -1.6 -1.9 -0.1 -1.4 -0.9 0.5 -0.9 1.2 0 2.6 -0.9 3.2 -2 0.9 -1.7 5 -3 5 -1.6 0 0.7 -4.1 7.6 -4.5 7.6 -0.2 0 -1 -0.7 -1.9 -1.5z"/>
  <path d="M95.3 214.2 c-0.9 -0.5 -0.1 -2.6 2.5 -7.1 3.4 -5.8 3.7 -6.1 4 -3.5 0.3 2.1 -0.3 3.4 -2.3 5 -1.5 1.2 -2.5 2.6 -2.2 3.1 0.9 1.4 -0.7 3.3 -2 2.5z"/>
  <path d="M123.1 211.1 c-1.6 -1 -0.6 -3.1 1.5 -3.1 1.6 0 1.8 0.9 0.6 2.7 -0.4 0.7 -1.3 0.9 -2.1 0.4z"/>
  <path d="M314.2 209.9 c-1.3 -0.5 -2.2 -1.4 -2 -2.1 0.8 -2.2 2.5 -1.9 4.2 0.7 1.8 2.7 1.4 2.9 -2.2 1.4z"/>
  <path d="M107.2 194.7 c-0.7 -0.8 -0.7 -1.8 -0.1 -2.7 0.8 -1.3 1 -1.3 1.9 0 2.1 3.2 0.5 5.5 -1.8 2.7z"/>
  <path d="M133.1 194.1 c-1 -0.6 -1.1 -1.4 -0.3 -2.6 0.5 -1 0.7 -2.7 0.4 -3.8 -0.4 -1.4 -0.1 -1.8 0.9 -1.5 0.8 0.3 1.3 1.2 1.1 2.2 -0.2 0.9 0.2 1.6 0.8 1.6 1.4 0 1.3 2.5 -0.3 3.8 -0.7 0.6 -1.8 0.7 -2.6 0.3z"/>
  <path d="M277 187.5 c0 -0.9 0.5 -1.5 1.1 -1.3 0.6 0.2 1.1 0.8 1.1 1.3 0 0.5 -0.5 1.1 -1.1 1.3 -0.6 0.2 -1.1 -0.4 -1.1 -1.3z"/>
  <path d="M140.2 184.1 c-2.1 -1.3 -1 -4.6 1.6 -4.9 2.5 -0.4 2.9 1.5 1 4.1 -0.9 1.1 -1.8 1.4 -2.6 0.8z"/>
  <path d="M269.3 181.1 c-2.5 -3.3 -3 -6.5 -1 -5.9 1.6 0.6 3.9 5.4 3.5 7.4 -0.2 1.2 -0.9 0.8 -2.5 -1.5z"/>
  <path d="M291.2 180.7 c-2.6 -3.3 -2.4 -8.7 0.4 -8.7 0.7 0 2 1.4 2.9 3 0.9 1.7 1.1 3 0.5 3 -0.5 0 -1 0.6 -1 1.4 0 2.1 -1.6 2.8 -2.8 1.3z"/>
  <path d="M118.1 174.8 c0.6 -1.2 2 -3.4 3 -4.7 l1.9 -2.4 0 2.9 c0 3.6 -0.9 4.9 -3.8 5.9 -2.2 0.6 -2.3 0.5 -1.1 -1.7z"/>
  <path d="M144.3 174.3 c0.6 -1.6 1.6 -3.1 2.2 -3.5 1.6 -1.2 3.5 -0.9 3.5 0.5 -0.1 1.9 -3.6 5.7 -5.4 5.7 -1.3 0 -1.4 -0.4 -0.3 -2.7z"/>
  <path d="M151.3 167.3 c-1.8 -0.7 -1.6 -2.3 0.2 -2.3 0.8 0 1.5 0.7 1.5 1.5 0 0.8 -0.1 1.5 -0.2 1.4 -0.2 0 -0.9 -0.3 -1.5 -0.6z"/>
  <path d="M126.8 163.8 c-0.3 -0.7 -0.3 -1.9 -0.1 -2.6 0.4 -1 0.8 -0.8 1.8 0.5 1.3 1.8 1.1 3.3 -0.5 3.3 -0.4 0 -1 -0.6 -1.2 -1.2z"/>
  <path d="M155.1 161.1 c-0.7 -0.5 -1.1 -1.9 -0.9 -3.2 0.2 -1.8 1 -2.5 3.1 -2.7 3.2 -0.4 3.3 0.3 0.9 4 -1.2 1.8 -2.2 2.4 -3.1 1.9z"/>
  <path d="M255.2 159.9 c-0.7 -1.1 -1.1 -2.4 -0.8 -2.7 1 -0.9 2.8 1.5 2.4 3.2 -0.2 1.4 -0.5 1.3 -1.6 -0.5z"/>
  <path d="M132.2 153.1 c1.3 -2.2 2.8 -2.8 2.8 -1.1 0 0.5 -0.9 1.4 -2 2 -1.9 1 -2 1 -0.8 -0.9z"/>
  <path d="M247.9 149.3 c-0.7 -1.6 -1.5 -3.1 -1.7 -3.5 -0.2 -0.5 0.3 -0.8 1.1 -0.8 0.9 0 1.8 1.3 2.2 3.1 0.9 4 0.2 4.6 -1.6 1.2z"/>
  <path d="M165.3 146.2 c-1.2 -0.8 -1.6 -8.9 -0.4 -9.7 1 -0.6 6.1 1.7 6.1 2.8 0 1.8 -4.7 7.5 -5.7 6.9z"/>
  <path d="M140.6 142.2 c-0.2 -0.4 -0.1 -1.4 0.3 -2.1 0.6 -1 1 -0.9 1.4 0.3 0.6 1.6 -0.8 3.2 -1.7 1.8z"/>
  <path d="M240.5 138 c-2.9 -4.6 -2.8 -5.5 0.5 -4.5 1.5 0.5 2 1.3 1.7 2.6 -0.3 1.1 0.2 2.3 1.1 2.8 1.3 0.8 1.4 1.3 0.5 2.2 -0.9 0.9 -1.8 0.1 -3.8 -3.1z"/>
  <path d="M269.5 140.9 c-1.2 -1.9 0.5 -2.3 2.2 -0.6 1.6 1.6 1.6 1.7 0.1 1.7 -0.9 0 -2 -0.5 -2.3 -1.1z"/>
  <path d="M150.7 130.5 c-0.8 -0.8 -1.7 -1.1 -2.1 -0.8 -1.2 1.3 -0.5 -1.2 0.9 -3.1 1.6 -2.1 1.7 -2.1 3.4 1.1 2.1 4.1 0.8 5.8 -2.2 2.8z"/>
  <path d="M235 129.6 c-1.3 -2.6 -0.8 -5.6 1 -5.6 0.5 0 1 1.8 1 4 0 2.2 -0.1 4 -0.3 4 -0.2 0 -0.9 -1.1 -1.7 -2.4z"/>
  <path d="M258 129.6 c0 -5.6 2.8 -7.5 4.7 -3.3 1.3 2.9 0 5.7 -2.7 5.7 -1.4 0 -2 -0.7 -2 -2.4z"/>
  <path d="M175 130 c-1.1 -0.7 -1 -1.3 0.4 -3.5 1.7 -2.7 4.2 -4.2 5.2 -3.2 0.3 0.3 -0.5 2.1 -1.8 4.1 -1.7 2.4 -2.8 3.2 -3.8 2.6z"/>
  <path d="M183.2 118.1 c-1.4 -0.8 -1.1 -2.2 1.9 -8.8 1.5 -3.4 2.4 -4.3 4.4 -4.3 2.8 0 3.3 2.1 1 4 -0.8 0.7 -1.5 1.7 -1.5 2.2 0 2.1 -4.6 7.6 -5.8 6.9z"/>
  <path d="M218.7 104 c-2.1 -3.4 -3.6 -6.5 -3.3 -6.7 0.3 -0.3 1.7 0.4 3.2 1.6 1.5 1.2 4.1 2.1 6 2.1 3.7 0 4.6 1.9 1.4 2.7 -1.2 0.3 -2.3 1.8 -2.8 3.6 l-0.8 3 -3.7 -6.3z"/>
  <path d="M237.8 95 c-0.3 -3.2 0 -4 1.1 -3.8 2.3 0.5 4.3 4.9 2.9 6.5 -2 2.5 -3.6 1.4 -4 -2.7z"/>
  <path d="M206.6 46.2 c-1 -1.6 0.1 -3.2 2.2 -3.2 1.1 0 1.3 0.3 0.6 0.8 -0.6 0.4 -1.3 1.4 -1.6 2.2 -0.3 1 -0.6 1.1 -1.2 0.2z"/>
 </g>
</svg>